HIERARCHY
ROOT Hips
{
  OFFSET 0 0 0
  CHANNELS 6 Xposition Yposition Zposition Zrotation Yrotation Xrotation
  JOINT LeftThigh
  {
    OFFSET 8.409438 0 -5.917753
    CHANNELS 3 Zrotation Yrotation Xrotation
    JOINT LeftLeg
    {
      OFFSET 0 0 -42.358652
      CHANNELS 3 Zrotation Yrotation Xrotation
      JOINT LeftFoot
      {
        OFFSET 0 0 -39.357303
        CHANNELS 3 Zrotation Yrotation Xrotation
      }
    }
  }
  JOINT RightThigh
  {
    OFFSET -8.409438 0 -5.917753
    CHANNELS 3 Zrotation Yrotation Xrotation
    JOINT RightLeg
    {
      OFFSET 0 0 -42.358652
      CHANNELS 3 Zrotation Yrotation Xrotation
      JOINT RightFoot
      {
        OFFSET 0 0 -39.357303
        CHANNELS 3 Zrotation Yrotation Xrotation
      }
    }
  }
  JOINT SpineLow
  {
    OFFSET 0 0 4.719101
    CHANNELS 3 Zrotation Yrotation Xrotation
    JOINT SpineMid
    {
      OFFSET 0 0 12.899191
      CHANNELS 3 Zrotation Yrotation Xrotation
      JOINT Chest
      {
        OFFSET 0 0 12.899191
        CHANNELS 3 Zrotation Yrotation Xrotation
        JOINT LeftShoulder
        {
          OFFSET 7.550562 1.41573 9.438202
          CHANNELS 3 Zrotation Yrotation Xrotation
          JOINT LeftArm
          {
            OFFSET 9.155056 0 4.247191
            CHANNELS 3 Zrotation Yrotation Xrotation
            JOINT LeftForearm
            {
              OFFSET 0 0 25.771955
              CHANNELS 3 Zrotation Yrotation Xrotation
              JOINT LeftHand
              {
                OFFSET 0 0 25.197169
                CHANNELS 3 Zrotation Yrotation Xrotation
              }
            }
          }
        }
        JOINT RightShoulder
        {
          OFFSET -7.550562 1.41573 9.438202
          CHANNELS 3 Zrotation Yrotation Xrotation
          JOINT RightArm
          {
            OFFSET -9.155056 0 4.247191
            CHANNELS 3 Zrotation Yrotation Xrotation
            JOINT RightForearm
            {
              OFFSET 0 0 -25.771955
              CHANNELS 3 Zrotation Yrotation Xrotation
              JOINT RightHand
              {
                OFFSET 0 0 -25.197169
                CHANNELS 3 Zrotation Yrotation Xrotation
              }
            }
          }
        }
        JOINT Neck
        {
          OFFSET 0 0 15.101124
          CHANNELS 3 Zrotation Yrotation Xrotation
          JOINT Head
          {
            OFFSET 0 0 11.325843
            CHANNELS 3 Zrotation Yrotation Xrotation
            End Site
            {
              OFFSET 0 0 14.157303
            }
          }
        }
      }
    }
  }
}
MOTION
Frames: 14
Frame Time: 0.0
0.0  89.887642  0.0  10.438179  -42.085481  -104.444548  27.855225  -10.375452  8.896977  -5.001312  5.91755  21.822582  1.601582  0.197291  2.586741  3.211743  9.606144  -17.751633  3.729007  5.261474  22.63035  3.448719  1.465217  -0.225396  -1.641905  1.0986  -0.874484  -4.529814  2.941479  -2.465154  -4.529814  2.941479  -2.465154  -20.43364  0.533861  10.279143  -4.337231  59.618579  66.417739  -29.374527  -25.661898  108.042873  101.577548  10.212259  -19.332318  -23.397267  1.147675  31.472133  59.827724  15.317688  47.763694  22.740814  -26.579317  -117.881747  65.576699  12.469868  -37.257782  13.614408  0.743445  10.794576  10.201335  0.798921  8.084036  
0.0  89.887642  0.0  10.366099  -41.804463  -104.300555  27.798232  -10.396996  8.761386  -5.033904  5.986074  21.94485  1.552099  0.175731  2.574247  3.134055  9.74313  -17.792903  3.552271  5.252348  22.644788  3.335778  1.421576  -0.212457  -1.677147  1.084923  -0.826381  -4.623541  2.906162  -2.334223  -4.623541  2.906161  -2.334223  -20.201748  0.469058  9.923734  -4.495297  59.657427  66.261575  -29.33558  -25.62268  108.084171  101.572237  10.319073  -19.269873  -23.281558  0.982942  30.826585  59.961454  15.430299  47.691283  22.849498  -26.791428  -117.714558  65.600492  12.136786  -36.946244  13.665765  0.872562  10.594861  10.237678  0.892276  7.931204  
0.0  89.887642  0.0  10.318083  -41.479722  -104.278448  27.744987  -10.412224  8.724924  -5.193849  5.959427  21.948331  1.537144  0.133029  2.63317  2.826891  9.819616  -17.781201  3.465713  5.239449  22.683456  3.336082  1.413415  -0.199579  -1.723263  1.07357  -0.765012  -4.746572  2.877917  -2.167639  -4.746572  2.877917  -2.16764  -19.969448  0.446046  9.556342  -4.520364  59.734348  66.154441  -29.335389  -25.606861  108.032843  101.606201  10.253116  -19.198838  -23.307977  0.839411  29.986584  60.458958  15.383346  47.824087  22.847324  -26.970443  -117.517022  65.505385  11.751418  -36.438416  13.655096  1.007788  10.395088  10.227456  0.989119  7.778221  
0.0  89.887642  0.0  10.18223  -41.146732  -104.102316  27.740564  -10.514379  8.597164  -5.207693  6.000453  21.996243  1.481094  0.111631  2.622366  2.597388  9.869026  -17.785185  3.396007  5.209178  22.678895  3.28791  1.400575  -0.17426  -1.797538  1.044727  -0.716869  -4.946609  2.800258  -2.03703  -4.946609  2.800258  -2.03703  -19.521875  0.47005  9.184699  -4.668783  59.810058  66.001051  -29.303175  -25.642374  107.998614  101.60023  10.197651  -19.15098  -23.047328  0.710201  29.193203  60.762224  15.515303  47.715039  22.865883  -27.150123  -117.295236  65.403748  11.223212  -35.744132  13.795648  1.16813  10.186223  10.330342  1.107156  7.617655  
0.0  89.887642  0.0  10.082278  -40.783225  -104.072063  27.678222  -10.653675  8.58136  -5.23224  6.030005  21.982248  1.384304  0.040616  2.621755  2.146556  9.895895  -17.731272  3.408373  5.169903  22.682008  3.291212  1.406631  -0.171735  -1.845122  1.023332  -0.660898  -5.073696  2.74463  -1.884369  -5.073696  2.74463  -1.884369  -19.29851  0.564026  8.917437  -4.717543  59.910124  65.867611  -29.312948  -25.698237  107.952761  101.621405  10.058766  -19.088542  -23.050195  0.659419  28.462596  61.287517  15.637919  47.65113  22.768367  -27.205827  -117.056225  65.311898  10.790639  -34.98053  13.771307  1.304958  10.002214  10.309983  1.205292  7.476449  
0.0  89.887642  0.0  9.900838  -40.423721  -103.919641  27.803919  -10.909587  8.581113  -5.233114  6.098209  21.942222  1.180874  -0.015687  2.511662  1.849565  9.856  -17.629741  3.53999  5.147626  22.681401  3.141837  1.384518  -0.196788  -1.900008  0.994879  -0.616495  -5.221085  2.668826  -1.762977  -5.221085  2.668826  -1.762977  -19.012875  0.661769  8.696571  -4.8695  60.01418  65.692589  -29.270581  -25.739351  107.88862  101.608402  9.921151  -19.020059  -23.131505  0.521412  27.734366  61.805385  15.872382  47.586903  22.530413  -27.403723  -117.223042  65.52052  9.858064  -34.347938  13.831695  1.423911  9.812687  10.35357  1.291271  7.331377  
0.0  89.887642  0.0  9.726057  -40.001222  -103.817895  27.83264  -11.126868  8.572633  -5.388899  6.133459  21.823288  1.077635  -0.089887  2.504021  1.344632  9.843822  -17.572683  3.454022  5.157465  22.659247  3.181487  1.384217  -0.211941  -1.930208  0.986925  -0.57406  -5.30175  2.649686  -1.647569  -5.30175  2.649686  -1.647569  -18.989024  0.756853  8.538088  -4.791126  60.114306  65.694541  -29.264868  -25.765885  107.84235  101.556599  9.675603  -18.893167  -23.145041  0.401514  27.370505  62.23999  16.202821  47.347382  22.272088  -27.286045  -117.009612  65.663819  9.72004  -34.001743  13.697814  1.45025  9.643632  10.252983  1.305066  7.204136  
0.0  89.887642  0.0  9.431664  -39.476076  -103.488883  27.874935  -11.358783  8.428511  -5.449373  6.216024  21.787658  0.810962  -0.174169  2.325641  0.742347  9.764552  -17.622971  3.530012  5.151784  22.646862  3.097315  1.351948  -0.240819  -1.992642  0.962672  -0.570922  -5.471645  2.582102  -1.639424  -5.471646  2.582102  -1.639424  -18.711888  1.00136  8.479571  -4.820926  60.156843  65.739317  -29.225375  -25.766221  107.821527  101.489124  9.373396  -18.772907  -22.988565  0.278735  27.121236  62.105051  16.531063  46.725671  21.884657  -27.060162  -116.730358  66.094982  9.22773  -33.895745  13.654383  1.468389  9.534415  10.220297  1.315538  7.121839  
0.0  89.887642  0.0  9.174095  -38.95126  -103.30808  27.823765  -11.603416  8.31414  -5.65061  6.271011  21.676741  0.744364  -0.241601  2.309449  0.173232  9.721052  -17.550593  3.389121  5.171694  22.581377  3.121367  1.336965  -0.259403  -2.023937  0.954469  -0.553774  -5.556329  2.56034  -1.593072  -5.556329  2.56034  -1.593073  -18.778912  1.202001  8.487971  -4.668496  60.260597  65.815849  -29.172929  -25.749694  107.750588  101.469524  9.025661  -18.654989  -23.041426  0.068373  27.033246  62.57025  16.934209  46.536072  21.303707  -26.742233  -116.436133  66.423965  9.235163  -33.903981  13.463844  1.43952  9.452338  10.077973  1.289052  7.061241  
0.0  89.887642  0.0  8.849141  -38.317364  -102.965083  27.841616  -11.873045  8.147482  -5.709297  6.379782  21.627787  0.537797  -0.343963  2.145243  -0.582365  9.647095  -17.591905  3.450246  5.159881  22.528083  3.097473  1.303457  -0.285518  -2.103958  0.925791  -0.562862  -5.774658  2.479231  -1.618416  -5.774658  2.479231  -1.618416  -18.437875  1.555261  8.536716  -4.599552  60.34313  65.966462  -29.119616  -25.834446  107.732598  101.40664  8.769028  -18.574872  -22.803107  -0.064192  26.864417  62.24563  17.241214  45.817846  20.927111  -26.128023  -115.730762  66.784032  9.13947  -33.875602  13.416366  1.451945  9.406417  10.042236  1.296624  7.026588  
0.0  89.887642  0.0  8.581459  -37.667616  -102.772461  27.797948  -12.14752  8.009721  -5.877846  6.427446  21.513303  0.435435  -0.439845  2.116574  -1.245971  9.660312  -17.505176  3.236772  5.154304  22.465202  3.153775  1.28963  -0.337431  -2.160821  0.903918  -0.548577  -5.928998  2.419345  -1.579501  -5.928998  2.419345  -1.579501  -18.394088  1.887595  8.509219  -4.27341  60.508382  66.247615  -29.012117  -25.868686  107.585569  101.34013  8.507362  -18.528401  -22.708903  -0.23517  26.706033  62.598757  17.674867  45.589155  20.506989  -25.784119  -115.426577  67.018189  9.058802  -33.652835  13.282485  1.492261  9.34981  9.941255  1.32357  6.98345  
0.0  89.887642  0.0  8.27024  -36.898657  -102.438225  27.630447  -12.375869  7.760395  -5.755112  6.520269  21.534473  0.14117  -0.587774  1.942327  -2.180454  9.621981  -17.584229  3.073419  5.196626  22.375288  3.256256  1.272215  -0.336237  -2.255581  0.872479  -0.553575  -6.187382  2.330685  -1.593589  -6.187382  2.330685  -1.593589  -17.944339  2.30847  8.540844  -4.077441  60.652957  66.595515  -28.877117  -25.89816  107.437752  101.276193  8.352052  -18.507926  -22.592121  -0.389009  26.359415  62.496284  17.944806  45.004829  20.367937  -25.290179  -114.814969  67.192071  8.801799  -33.204641  13.255954  1.549657  9.293173  9.920541  1.365008  6.939722  
0.0  89.887642  0.0  8.046234  -36.14547  -102.254708  27.537038  -12.56697  7.651173  -5.865179  6.505729  21.392756  -0.036841  -0.704541  1.90187  -2.93491  9.682094  -17.543516  2.943578  5.163444  22.34004  3.215179  1.244695  -0.351313  -2.280414  0.846954  -0.553237  -6.254544  2.260404  -1.591081  -6.254544  2.260404  -1.59108  -18.026134  2.754633  8.59183  -3.552256  60.886857  67.16197  -28.757175  -25.878451  107.192392  101.303004  8.351161  -18.436925  -22.716294  -0.438224  26.167616  62.900836  18.218863  44.713655  20.062824  -25.049762  -114.571738  67.199199  8.487578  -32.568391  12.992304  1.619703  9.279029  9.721668  1.413235  6.928095  
0.0  89.887642  0.0  7.760109  -35.30894  -101.941799  27.207279  -12.72238  7.373129  -5.825286  6.499849  21.333283  -0.22854  -0.779619  1.80815  -4.08806  9.661037  -17.745806  2.975857  5.108413  22.33664  3.291576  1.261318  -0.295244  -2.332446  0.805084  -0.555696  -6.395701  2.144552  -1.595448  -6.395701  2.144552  -1.595448  -17.711903  3.229959  8.628135  -3.142521  61.129658  67.895777  -28.629015  -25.854447  106.851196  101.450294  8.264215  -18.592261  -22.742063  -0.422145  25.764996  62.978081  18.288986  44.111661  19.704303  -25.219335  -114.743283  67.549313  7.32582  -31.969688  12.823356  1.730002  9.219127  9.5933  1.49217  6.881119  
